# xmcd
#
# Track frame offsets: 
#        150
#        13227
#        29027
#        40939
#        64808
#        83320
#        104467
#        122734
#
# Disc length: 1915 seconds
#
# Revision: 0
# Processed by: cddbd v1.5.2PL0 Copyright (c) Steve Scherf et al.
# Submitted via: ExactAudioCopy v1.0b3
#
DISCID=64077908
DTITLE=Bill Palmer - TV Killers
DYEAR=1900
DGENRE=Country
TTITLE0=Tell the Man
TTITLE1=If you didnot Have to Go
TTITLE2=Gimme Gimme
TTITLE3=The illegals
TTITLE4=Shake it down
TTITLE5=Green on the Vine
TTITLE6=Hypocrite
TTITLE7=wild Away
EXTD=
EXTT0=
EXTT1=
EXTT2=
EXTT3=
EXTT4=
EXTT5=
EXTT6=
EXTT7=
PLAYORDER=
